<?xml version="1.0" standalone="no"?>
<!DOCTYPE svg PUBLIC "-//W3C//DTD SVG 20010904//EN"
 "http://www.w3.org/TR/2001/REC-SVG-20010904/DTD/svg10.dtd">
<svg version="1.0" xmlns="http://www.w3.org/2000/svg"
 width="180.000000pt" height="180.000000pt" viewBox="0 0 180.000000 180.000000"
 preserveAspectRatio="xMidYMid meet">

<g transform="translate(0.000000,180.000000) scale(0.100000,-0.100000)"
fill="#312E81" stroke="none">
<path d="M0 900 l0 -900 900 0 900 0 0 900 0 900 -900 0 -900 0 0 -900z m1140
703 c188 -61 363 -221 444 -406 66 -148 81 -359 37 -512 -72 -253 -272 -455
-520 -524 -39 -11 -73 -17 -75 -13 -2 4 13 95 35 202 94 475 169 881 169 914
0 38 -28 73 -66 82 -28 7 -82 -21 -94 -49 -8 -20 -182 -911 -212 -1086 l-12
-73 -57 6 c-79 8 -204 56 -286 108 -408 264 -462 852 -110 1184 88 83 176 136
280 169 87 28 119 31 112 13 -3 -7 -52 -259 -110 -560 -79 -413 -103 -553 -96
-571 22 -56 91 -74 136 -34 24 21 33 60 140 602 63 319 115 581 115 583 0 8
103 -13 170 -35z"/>
</g>
</svg>
